<svg width="26" height="26" viewBox="0 0 26 26" fill="none" xmlns="http://www.w3.org/2000/svg">
<path d="M13 0.591233C9.5916 0.556598 6.3089 1.87665 3.87335 4.26128C1.43779 6.64591 0.0486756 9.89999 0.0112915 13.3084C0.0244247 16.002 0.890914 18.6221 2.48631 20.7924C4.0817 22.9627 6.32389 24.5716 8.89085 25.3879C9.54028 25.5059 9.77644 25.1163 9.77644 24.7739C9.77644 24.4314 9.77644 23.6757 9.77644 22.613C6.16322 23.3805 5.3957 20.9127 5.3957 20.9127C5.15517 20.1379 4.64381 19.4757 3.95514 19.047C2.77434 18.2677 4.0496 18.2795 4.0496 18.2795C4.45774 18.3341 4.84823 18.4803 5.19179 18.7073C5.53535 18.9343 5.82305 19.2361 6.03333 19.5902C6.39977 20.2256 7.00103 20.6917 7.70771 20.8883C8.41438 21.0848 9.16998 20.9961 9.81186 20.6411C9.87788 19.9945 10.1707 19.3921 10.6384 18.9407C7.75729 18.6219 4.73446 17.5356 4.73446 12.6589C4.70869 11.3868 5.17872 10.1546 6.04514 9.22282C5.65055 8.13067 5.69714 6.92773 6.17503 5.86937C6.17503 5.86937 7.27316 5.52694 9.7174 7.16825C11.8451 6.60127 14.0841 6.60127 16.2118 7.16825C18.6914 5.52694 19.7541 5.86937 19.7541 5.86937C20.232 6.92773 20.2786 8.13067 19.884 9.22282C20.7706 10.1375 21.2661 11.3615 21.2655 12.6353C21.2655 17.5238 18.2191 18.5983 15.3616 18.9171C15.6745 19.2209 15.9162 19.5902 16.0693 19.9986C16.2224 20.4069 16.2832 20.8441 16.2472 21.2787V24.762C16.2472 24.762 16.4833 25.5059 17.1328 25.3761C19.6924 24.5547 21.9271 22.9455 23.5175 20.7782C25.108 18.611 25.9729 15.9965 25.9887 13.3084C25.9513 9.89999 24.5622 6.64591 22.1267 4.26128C19.6911 1.87665 16.4084 0.556598 13 0.591233Z" fill="white"/>
</svg>
