<svg width="20" height="14" viewBox="0 0 20 14" fill="none" xmlns="http://www.w3.org/2000/svg">
<path d="M19.5806 2.19558C19.4704 1.77658 19.2505 1.3935 18.943 1.08473C18.6354 0.775966 18.2509 0.552373 17.828 0.436366C16.2633 0.00427489 9.99396 0.00427477 9.99396 0.00427477C7.37979 -0.0267076 4.76634 0.11075 2.17032 0.41579C1.74733 0.540271 1.3635 0.769014 1.05504 1.08043C0.746585 1.39184 0.523687 1.77563 0.407389 2.19558C0.126924 3.78191 -0.00922758 5.38982 0.000559584 6.99998C-0.00989874 8.61022 0.126258 10.2182 0.407389 11.8045C0.521293 12.2233 0.74371 12.6057 1.0528 12.9142C1.36188 13.2226 1.74699 13.4464 2.17032 13.5636C3.75592 13.9957 9.99396 13.9957 9.99396 13.9957C12.6116 14.0268 15.2286 13.8893 17.828 13.5842C18.2509 13.4682 18.6354 13.2446 18.943 12.9359C19.2505 12.6271 19.4704 12.244 19.5806 11.825C19.8682 10.2394 20.0078 8.63129 19.9978 7.02061C20.0194 5.40267 19.8796 3.78655 19.5806 2.19558ZM8.00155 9.9938V4.00625L13.2173 6.99998L8.00155 9.9938Z" fill="white"/>
</svg>
