<svg width="24" height="14" viewBox="0 0 24 14" fill="none" xmlns="http://www.w3.org/2000/svg">
<path fill-rule="evenodd" clip-rule="evenodd" d="M23.4493 0.94799C23.6161 0.40154 23.4493 0 22.6553 0H20.0297C19.3621 0 19.0543 0.34687 18.8874 0.72936C18.8874 0.72936 17.5521 3.92607 15.6606 6.0025C15.0487 6.6036 14.7705 6.7949 14.4367 6.7949C14.2698 6.7949 14.0194 6.6036 14.0194 6.0572V0.94799C14.0194 0.29225 13.8345 0 13.2781 0H9.15215C8.73496 0 8.48405 0.30434 8.48405 0.59278C8.48405 1.21441 9.42976 1.35777 9.52724 3.10641V6.9042C9.52724 7.7368 9.37415 7.8878 9.04034 7.8878C8.15025 7.8878 5.98509 4.67682 4.70095 1.00261C4.44929 0.28847 4.19688 0 3.52585 0H0.900233C0.150059 0 1.52588e-05 0.34687 1.52588e-05 0.72936C1.52588e-05 1.41244 0.890156 4.80039 4.14466 9.2812C6.31431 12.3412 9.37119 14 12.1528 14C13.8218 14 14.0283 13.6316 14.0283 12.997V10.6842C14.0283 9.9474 14.1864 9.8003 14.7149 9.8003C15.1043 9.8003 15.7719 9.9916 17.3296 11.467C19.1099 13.2156 19.4034 14 20.4047 14H23.0304C23.7805 14 24.1556 13.6316 23.9392 12.9045C23.7024 12.1799 22.8525 11.1286 21.7247 9.8823C21.1127 9.1719 20.1947 8.4069 19.9165 8.0243C19.5271 7.5326 19.6384 7.314 19.9165 6.8769C19.9165 6.8769 23.1155 2.45067 23.4493 0.94799Z" fill="white"/>
</svg>
